<svg xmlns="http://www.w3.org/2000/svg" viewBox="0 0 600 200" fill="#2d2d2d">
  <!-- S -->
  <path d="
    M90 30
    C55 30, 20 55, 20 82
    C20 110, 45 125, 75 135
    C95 142, 115 150, 115 170
    C115 185, 100 195, 78 195
    C55 195, 35 182, 22 170
    L2 170
    C2 170, 30 200, 78 200
    C120 200, 150 180, 150 160
    C150 132, 125 118, 92 107
    C68 99, 55 92, 55 75
    C55 60, 68 48, 88 48
    C108 48, 125 58, 135 68
    L148 40
    C135 30, 112 18, 88 18
    C88 18, 90 30, 90 30
    Z
  "/>
  <!-- R vertical stem -->
  <path d="
    M195 20 L195 200 L230 200 L230 120 L230 20 Z
  "/>
  <!-- R bowl -->
  <path d="
    M230 20
    L290 20
    C330 20, 355 40, 355 65
    C355 90, 330 110, 290 110
    L230 110
    L230 80
    L280 80
    C300 80, 315 75, 315 65
    C315 55, 300 48, 280 48
    L230 48
    Z
  "/>
  <!-- Arrow from R going up-right -->
  <path d="
    M260 115
    L355 45
    L355 85
    L390 85
    L390 10
    L315 10
    L315 45
    L355 45
    L260 115
  "/>
  <!-- C -->
  <path d="
    M480 18
    C430 18, 390 55, 390 110
    C390 165, 430 200, 480 200
    C515 200, 545 185, 560 165
    L535 145
    C525 158, 505 170, 480 170
    C450 170, 428 148, 428 110
    C428 72, 450 48, 480 48
    C505 48, 525 60, 535 73
    L560 53
    C545 33, 515 18, 480 18
    Z
  "/>
</svg>
